<svg width="235" height="181" viewBox="0 0 235 181" fill="none" xmlns="http://www.w3.org/2000/svg">
<path opacity="0.5" d="M117.49 180.568C182.378 180.568 234.98 150.198 234.98 112.735C234.98 75.2718 182.378 44.902 117.49 44.902C52.6021 44.902 0 75.2718 0 112.735C0 150.198 52.6021 180.568 117.49 180.568Z" fill="#82E8FF"/>
<path opacity="0.3" d="M155.17 67.051L163.784 72.024C164.694 72.55 166.171 72.55 167.081 72.024L169.841 70.43C170.751 69.904 170.751 69.052 169.841 68.527L161.227 63.554C160.317 63.028 158.84 63.028 157.93 63.554L155.17 65.148C154.26 65.673 154.26 66.525 155.17 67.051Z" fill="#4694B8"/>
<path opacity="0.3" d="M81.401 155.18L92.773 148.49C93.692 147.949 93.695 146.621 92.779 146.076L84.624 141.223L55.749 143.905L43.539 151.228C42.564 151.813 42.571 153.228 43.551 153.803L75.253 172.401C76.836 173.33 78.796 173.33 80.38 172.402L91.001 166.179C91.8 165.711 91.821 164.564 91.04 164.066L79.374 156.637L81.401 155.18Z" fill="#4694B8"/>
<path d="M162.934 146.166L162.919 151.45L161.904 153.531L161.919 148.247L162.934 146.166Z" fill="#114F6B"/>
<path d="M143.966 148.246L143.951 153.53L142.914 151.45L142.929 146.166L143.966 148.246Z" fill="#114F6B"/>
<path d="M168.826 150.183L168.811 155.466L166.132 156.97L166.148 151.687L168.826 150.183Z" fill="#114F6B"/>
<path d="M139.773 151.687L139.758 156.97L137.065 155.465L137.08 150.182L139.773 151.687Z" fill="#114F6B"/>
<path d="M135.494 155.36L135.479 160.644L135.468 158.961L135.483 153.677L135.494 155.36Z" fill="#36A1D4"/>
<path d="M170.472 155.36L170.457 160.644L166.835 161.169L166.85 155.886L170.472 155.36Z" fill="#114F6B"/>
<path d="M139.119 155.886L139.104 161.169L135.479 160.644L135.494 155.36L139.119 155.886Z" fill="#114F6B"/>
<path d="M166.85 155.886L166.835 161.169L166.166 162.634L166.181 157.35L166.85 155.886Z" fill="#114F6B"/>
<path d="M139.807 157.351L139.792 162.634L139.104 161.169L139.119 155.886L139.807 157.351Z" fill="#114F6B"/>
<path d="M167.429 160.312L167.414 165.595L163.82 165.002L163.835 159.718L167.429 160.312Z" fill="#114F6B"/>
<path d="M168.875 158.856L168.86 164.139L167.414 165.595L167.429 160.312L168.875 158.856Z" fill="#114F6B"/>
<path d="M142.18 159.718L142.165 165.002L138.576 165.597L138.591 160.313L142.18 159.718Z" fill="#114F6B"/>
<path d="M138.591 160.313L138.576 165.597L137.114 164.138L137.129 158.855L138.591 160.313Z" fill="#114F6B"/>
<path d="M163.835 159.718L163.82 165.002L161.974 166.074L161.989 160.791L163.835 159.718Z" fill="#114F6B"/>
<path d="M144.036 160.79L144.021 166.073L142.165 165.002L142.18 159.718L144.036 160.79Z" fill="#114F6B"/>
<path d="M157.909 162.158L157.894 167.441L155.368 167.833L155.383 162.549L157.909 162.158Z" fill="#114F6B"/>
<path d="M150.662 162.551L150.647 167.834L148.117 167.44L148.131 162.156L150.662 162.551Z" fill="#114F6B"/>
<path d="M163.026 162.871L163.011 168.154L160.502 168.996L160.517 163.713L163.026 162.871Z" fill="#114F6B"/>
<path d="M160.517 163.713L160.502 168.996L157.894 167.441L157.909 162.158L160.517 163.713Z" fill="#114F6B"/>
<path d="M145.544 163.713L145.529 168.996L143.006 168.154L143.021 162.871L145.544 163.713Z" fill="#114F6B"/>
<path d="M148.131 162.156L148.117 167.44L145.529 168.996L145.544 163.713L148.131 162.156Z" fill="#114F6B"/>
<path d="M155.383 162.549L155.368 167.833L154.472 169.933L154.487 164.65L155.383 162.549Z" fill="#114F6B"/>
<path d="M138.591 160.313L137.129 158.855L139.807 157.351L139.119 155.886L135.494 155.36L135.483 153.677L139.105 153.151L139.773 151.687L137.08 150.182L138.526 148.725L142.12 149.319L143.966 148.246L142.929 146.166L145.438 145.324L148.045 146.88L150.572 146.488L151.467 144.388L154.373 144.389L155.291 146.488L157.823 146.881L160.411 145.324L162.934 146.166L161.919 148.247L163.775 149.319L167.364 148.724L168.826 150.183L166.148 151.687L166.834 153.153L170.461 153.677L170.472 155.36L166.85 155.886L166.181 157.35L168.875 158.856L167.429 160.312L163.835 159.718L161.989 160.791L163.026 162.871L160.517 163.713L157.909 162.158L155.383 162.549L154.487 164.65L151.581 164.648L150.662 162.551L148.131 162.156L145.544 163.713L143.021 162.871L144.036 160.79L142.18 159.718L138.591 160.313Z" fill="#0E92CF"/>
<path d="M151.581 164.648L151.566 169.932L150.647 167.834L150.662 162.551L151.581 164.648Z" fill="#114F6B"/>
<path d="M154.487 164.65L154.472 169.933L151.566 169.932L151.581 164.648L154.487 164.65Z" fill="#114F6B"/>
<path d="M149.313 152.971C150.83 151.823 153.701 151.586 155.724 152.441C157.748 153.296 158.158 154.919 156.641 156.066C155.124 157.214 152.253 157.451 150.23 156.596C148.207 155.742 147.796 154.119 149.313 152.971Z" fill="#114F6B"/>
<path d="M168.072 5.49799C164.073 3.18899 160.688 2.53199 158.653 2.71699L153.715 5.58699L155.609 13.754C157.079 13.439 159.336 13.96 161.197 15.034C164.015 16.795 165.308 19.034 165.301 21.296C165.295 23.496 163.822 24.725 162.017 26.154C159.466 28.182 158.5 31.001 158.66 34.399L158.709 36.116L162.71 38.426L158.658 40.781C158.78 40.71 158.925 40.68 159.061 40.634C157.925 41.027 157.222 42.248 157.216 44.213C157.206 47.585 159.23 51.286 162.218 53.011C163.732 53.885 164.993 53.987 165.882 53.458C165.865 53.473 170.803 50.603 170.803 50.603C171.716 50.072 172.241 48.879 172.246 47.169C172.208 44.181 170.739 41.103 168.379 39.182L171.144 37.575L171.147 36.413C171.102 33.463 171.959 31.424 174.051 29.976C176.197 28.486 178.863 26.782 178.877 21.858C178.893 16.481 175.524 9.79999 168.072 5.49799Z" fill="#91262A"/>
<path d="M162.253 41.219C165.304 42.98 167.265 46.573 167.309 50.038C167.299 53.41 165.27 54.771 162.22 53.01C159.232 51.285 157.208 47.583 157.218 44.212C157.227 40.778 159.319 39.525 162.253 41.219Z" fill="#F54047"/>
<path d="M163.135 8.36696C170.587 12.669 173.955 19.351 173.94 24.727C173.926 29.651 171.26 31.355 169.114 32.845C167.022 34.294 166.165 36.332 166.21 39.282L166.207 40.444L158.71 36.116L158.661 34.399C158.5 31.001 159.467 28.182 162.018 26.154C163.823 24.725 165.296 23.496 165.302 21.296C165.308 19.035 164.015 16.795 161.198 15.034C159.337 13.96 157.081 13.439 155.61 13.754L153.715 5.58696C155.75 5.40096 159.136 6.05796 163.135 8.36696Z" fill="#F54047"/>
<path d="M32.955 111.566L30.019 109.86L28.645 80.21L37.928 74.85L43.042 77.822L41.785 108.991L37.872 111.25L42.247 113.793C42.12 113.719 41.968 113.689 41.827 113.64C43.008 114.048 43.733 115.314 43.738 117.343C43.748 120.835 41.652 124.668 38.502 126.486C36.945 127.385 35.658 127.483 34.751 126.936C34.779 126.96 29.665 123.988 29.665 123.988C28.718 123.438 28.178 122.19 28.173 120.404C28.218 116.978 30.092 113.435 32.955 111.566Z" fill="#BF681D"/>
<path d="M38.468 114.265C35.374 116.051 33.333 119.789 33.288 123.376C33.298 126.868 35.353 128.304 38.503 126.486C41.653 124.667 43.749 120.834 43.739 117.343C43.728 113.787 41.562 112.478 38.468 114.265Z" fill="#FFC526"/>
<path d="M35.133 112.831L41.785 108.991L43.042 77.822L33.759 83.181L35.133 112.831Z" fill="#FFC526"/>
<path opacity="0.3" d="M212.777 100.832L120.736 153.813L44.448 109.637L136.49 56.655L212.777 100.832Z" fill="#4694B8"/>
<path opacity="0.3" d="M198.073 146.307L184.468 148.25C179.38 148.929 173.699 146.573 171.779 142.987C169.859 139.401 172.428 135.944 177.516 135.265L191.121 133.322C196.209 132.643 201.89 135 203.81 138.585C205.73 142.171 203.161 145.628 198.073 146.307Z" fill="#4694B8"/>
<path d="M209.147 100.198L120.032 151.649L63.7009 119.126V116.002L152.817 67.675L209.147 97.074V100.198Z" fill="black"/>
<path d="M209.147 97.074L120.032 148.525L63.7009 116.002L152.817 64.551L209.147 97.074Z" fill="#666666"/>
<path d="M76.896 113.088L147.713 72.201L180.203 90.959L109.386 131.845L76.896 113.088Z" fill="white"/>
<path d="M78.5809 113.087L84.0529 109.928L88.2279 112.338L82.7559 115.498L78.5809 113.087Z" fill="#4D4D4D"/>
<path d="M84.9469 109.412L90.4189 106.253L94.5939 108.663L89.1219 111.822L84.9469 109.412Z" fill="#4D4D4D"/>
<path d="M91.313 105.737L96.785 102.577L100.96 104.988L95.487 108.147L91.313 105.737Z" fill="#4D4D4D"/>
<path d="M97.679 102.061L103.151 98.902L107.326 101.312L101.854 104.471L97.679 102.061Z" fill="#4D4D4D"/>
<path d="M104.045 98.385L109.517 95.226L113.692 97.636L108.22 100.796L104.045 98.385Z" fill="#4D4D4D"/>
<path d="M110.411 94.71L115.883 91.551L120.058 93.962L114.586 97.121L110.411 94.71Z" fill="#4D4D4D"/>
<path d="M116.777 91.035L122.249 87.875L126.424 90.286L120.952 93.445L116.777 91.035Z" fill="#4D4D4D"/>
<path d="M123.143 87.359L128.615 84.2L132.79 86.611L127.318 89.769L123.143 87.359Z" fill="#4D4D4D"/>
<path d="M129.509 83.684L134.981 80.525L139.156 82.935L133.684 86.094L129.509 83.684Z" fill="#4D4D4D"/>
<path d="M135.875 80.008L141.347 76.849L145.522 79.26L140.05 82.419L135.875 80.008Z" fill="#4D4D4D"/>
<path d="M142.241 76.333L147.713 73.174L151.888 75.584L146.416 78.744L142.241 76.333Z" fill="#4D4D4D"/>
<path d="M86.0659 117.409L91.5379 114.25L95.7129 116.66L90.2399 119.819L86.0659 117.409Z" fill="#4D4D4D"/>
<path d="M92.4319 113.734L97.9039 110.574L102.079 112.985L96.6069 116.144L92.4319 113.734Z" fill="#4D4D4D"/>
<path d="M98.798 110.058L104.27 106.899L108.445 109.309L102.973 112.469L98.798 110.058Z" fill="#4D4D4D"/>
<path d="M105.164 106.383L110.636 103.223L114.811 105.634L109.339 108.793L105.164 106.383Z" fill="#4D4D4D"/>
<path d="M111.53 102.707L117.002 99.548L121.177 101.959L115.705 105.118L111.53 102.707Z" fill="#4D4D4D"/>
<path d="M117.896 99.032L123.368 95.872L127.543 98.283L122.071 101.442L117.896 99.032Z" fill="#4D4D4D"/>
<path d="M124.262 95.356L129.734 92.197L133.909 94.607L128.437 97.767L124.262 95.356Z" fill="#4D4D4D"/>
<path d="M130.628 91.681L136.1 88.522L140.275 90.932L134.803 94.091L130.628 91.681Z" fill="#4D4D4D"/>
<path d="M136.994 88.005L142.466 84.846L146.641 87.257L141.169 90.416L136.994 88.005Z" fill="#4D4D4D"/>
<path d="M143.36 84.33L148.832 81.171L153.007 83.581L147.535 86.74L143.36 84.33Z" fill="#4D4D4D"/>
<path d="M149.726 80.654L155.198 77.495L159.373 79.905L153.901 83.065L149.726 80.654Z" fill="#4D4D4D"/>
<path d="M90.8519 120.172L96.3239 117.013L100.499 119.423L95.0269 122.583L90.8519 120.172Z" fill="#4D4D4D"/>
<path d="M97.2179 116.497L102.69 113.337L106.865 115.748L101.393 118.907L97.2179 116.497Z" fill="#4D4D4D"/>
<path d="M103.584 112.821L109.056 109.662L113.231 112.073L107.759 115.232L103.584 112.821Z" fill="#4D4D4D"/>
<path d="M109.95 109.146L115.422 105.987L119.597 108.397L114.125 111.556L109.95 109.146Z" fill="#4D4D4D"/>
<path d="M116.316 105.47L121.788 102.311L125.963 104.722L120.491 107.881L116.316 105.47Z" fill="#4D4D4D"/>
<path d="M122.683 101.795L128.154 98.636L132.329 101.046L126.857 104.205L122.683 101.795Z" fill="#4D4D4D"/>
<path d="M129.049 98.12L134.52 94.96L138.695 97.371L133.223 100.53L129.049 98.12Z" fill="#4D4D4D"/>
<path d="M135.414 94.444L140.887 91.285L145.061 93.695L139.589 96.855L135.414 94.444Z" fill="#4D4D4D"/>
<path d="M141.78 90.769L147.252 87.61L151.427 90.02L145.955 93.179L141.78 90.769Z" fill="#4D4D4D"/>
<path d="M148.147 87.093L153.619 83.934L157.793 86.344L152.321 89.503L148.147 87.093Z" fill="#4D4D4D"/>
<path d="M95.6379 122.935L101.11 119.776L105.285 122.187L99.8129 125.346L95.6379 122.935Z" fill="#4D4D4D"/>
<path d="M102.004 119.26L107.476 116.101L111.651 118.511L106.179 121.671L102.004 119.26Z" fill="#4D4D4D"/>
<path d="M108.37 115.584L113.842 112.425L118.017 114.836L112.545 117.995L108.37 115.584Z" fill="#4D4D4D"/>
<path d="M114.736 111.909L120.209 108.75L124.383 111.161L118.911 114.32L114.736 111.909Z" fill="#4D4D4D"/>
<path d="M121.102 108.233L126.574 105.075L130.749 107.485L125.278 110.644L121.102 108.233Z" fill="#4D4D4D"/>
<path d="M127.468 104.558L132.941 101.399L137.115 103.809L131.644 106.969L127.468 104.558Z" fill="#4D4D4D"/>
<path d="M133.835 100.883L139.307 97.724L143.481 100.134L138.009 103.293L133.835 100.883Z" fill="#4D4D4D"/>
<path d="M140.201 97.208L145.672 94.048L149.847 96.459L144.376 99.618L140.201 97.208Z" fill="#4D4D4D"/>
<path d="M146.567 93.532L152.039 90.373L156.213 92.783L150.741 95.942L146.567 93.532Z" fill="#4D4D4D"/>
<path d="M154.512 83.418L159.299 86.181L152.933 89.857L157.107 92.267L163.474 88.592L165.071 87.67L168.946 85.432L165.392 83.381L164.771 83.022L159.984 80.259L154.512 83.418Z" fill="#4D4D4D"/>
<path d="M108.457 121.061L106.791 122.023L100.425 125.699L104.6 128.109L110.966 124.434L112.633 123.471L116.438 121.274L112.262 118.864L108.457 121.061Z" fill="#4D4D4D"/>
<path d="M113.157 118.348L118.629 115.189L122.804 117.599L117.331 120.758L113.157 118.348Z" fill="#4D4D4D"/>
<path d="M119.523 114.673L124.995 111.513L129.169 113.924L123.697 117.083L119.523 114.673Z" fill="#4D4D4D"/>
<path d="M125.889 110.997L131.361 107.838L135.536 110.248L130.064 113.407L125.889 110.997Z" fill="#4D4D4D"/>
<path d="M132.255 107.322L137.727 104.163L141.901 106.573L136.43 109.732L132.255 107.322Z" fill="#4D4D4D"/>
<path d="M138.621 103.646L144.093 100.487L148.267 102.897L142.796 106.057L138.621 103.646Z" fill="#4D4D4D"/>
<path d="M144.987 99.971L150.459 96.812L154.634 99.222L149.162 102.381L144.987 99.971Z" fill="#4D4D4D"/>
<path d="M151.353 96.296L156.825 93.136L161 95.547L155.528 98.705L151.353 96.296Z" fill="#4D4D4D"/>
<path d="M163.191 89.461L162.255 90.001L157.719 92.62L161.894 95.03L166.43 92.411L167.366 91.871L173.732 88.196L169.557 85.785L163.191 89.461Z" fill="#4D4D4D"/>
<path d="M105.211 128.462L110.683 125.303L114.858 127.713L109.386 130.872L105.211 128.462Z" fill="#4D4D4D"/>
<path d="M111.577 124.787L117.049 121.628L121.224 124.038L115.752 127.197L111.577 124.787Z" fill="#4D4D4D"/>
<path d="M117.943 121.112L123.415 117.952L127.59 120.362L122.118 123.521L117.943 121.112Z" fill="#4D4D4D"/>
<path d="M152.509 101.155L149.773 102.734L148.879 103.25L143.407 106.41L142.513 106.926L137.041 110.085L136.147 110.601L130.675 113.761L124.309 117.436L128.484 119.846L134.85 116.171L140.322 113.012L141.216 112.495L146.688 109.336L147.582 108.82L153.054 105.661L153.948 105.145L156.684 103.565L159.42 101.985L155.245 99.575L152.509 101.155Z" fill="#4D4D4D"/>
<path d="M156.139 99.059L161.611 95.9L165.786 98.31L160.314 101.469L156.139 99.059Z" fill="#4D4D4D"/>
<path d="M162.506 95.383L167.977 92.224L172.152 94.635L166.68 97.794L162.506 95.383Z" fill="#4D4D4D"/>
<path d="M168.871 91.708L174.343 88.549L178.518 90.959L173.046 94.118L168.871 91.708Z" fill="#4D4D4D"/>
<path d="M78.5809 112.464L84.0529 109.305L88.2279 111.715L82.7559 114.874L78.5809 112.464Z" fill="#E6E6E6"/>
<path d="M84.9469 108.788L90.4189 105.629L94.5939 108.039L89.1219 111.199L84.9469 108.788Z" fill="#B3B3B3"/>
<path d="M91.313 105.113L96.785 101.954L100.96 104.364L95.487 107.523L91.313 105.113Z" fill="#B3B3B3"/>
<path d="M97.679 101.438L103.151 98.278L107.326 100.689L101.854 103.848L97.679 101.438Z" fill="#B3B3B3"/>
<path d="M104.045 97.762L109.517 94.603L113.692 97.013L108.22 100.172L104.045 97.762Z" fill="#B3B3B3"/>
<path d="M110.411 94.087L115.883 90.928L120.058 93.338L114.586 96.497L110.411 94.087Z" fill="#B3B3B3"/>
<path d="M116.777 90.411L122.249 87.252L126.424 89.663L120.952 92.821L116.777 90.411Z" fill="#B3B3B3"/>
<path d="M123.143 86.736L128.615 83.577L132.79 85.987L127.318 89.146L123.143 86.736Z" fill="#B3B3B3"/>
<path d="M129.509 83.061L134.981 79.901L139.156 82.312L133.684 85.471L129.509 83.061Z" fill="#B3B3B3"/>
<path d="M135.875 79.385L141.347 76.226L145.522 78.636L140.05 81.795L135.875 79.385Z" fill="#B3B3B3"/>
<path d="M142.241 75.709L147.713 72.55L151.888 74.961L146.416 78.12L142.241 75.709Z" fill="#B3B3B3"/>
<path d="M86.0659 116.785L91.5379 113.626L95.7129 116.037L90.2399 119.196L86.0659 116.785Z" fill="#B3B3B3"/>
<path d="M92.4319 113.11L97.9039 109.951L102.079 112.361L96.6069 115.52L92.4319 113.11Z" fill="#B3B3B3"/>
<path d="M98.798 109.434L104.27 106.275L108.445 108.686L102.973 111.845L98.798 109.434Z" fill="#B3B3B3"/>
<path d="M105.164 105.759L110.636 102.6L114.811 105.01L109.339 108.17L105.164 105.759Z" fill="#B3B3B3"/>
<path d="M111.53 102.084L117.002 98.924L121.177 101.335L115.705 104.494L111.53 102.084Z" fill="#B3B3B3"/>
<path d="M117.896 98.408L123.368 95.249L127.543 97.66L122.071 100.819L117.896 98.408Z" fill="#B3B3B3"/>
<path d="M124.262 94.733L129.734 91.574L133.909 93.984L128.437 97.143L124.262 94.733Z" fill="#B3B3B3"/>
<path d="M130.628 91.057L136.1 87.898L140.275 90.309L134.803 93.468L130.628 91.057Z" fill="#B3B3B3"/>
<path d="M136.994 87.382L142.466 84.222L146.641 86.633L141.169 89.792L136.994 87.382Z" fill="#B3B3B3"/>
<path d="M143.36 83.706L148.832 80.547L153.007 82.958L147.535 86.117L143.36 83.706Z" fill="#B3B3B3"/>
<path d="M149.726 80.031L155.198 76.872L159.373 79.282L153.901 82.441L149.726 80.031Z" fill="#B3B3B3"/>
<path d="M90.8519 119.549L96.3239 116.39L100.499 118.8L95.0269 121.959L90.8519 119.549Z" fill="#B3B3B3"/>
<path d="M97.2179 115.873L102.69 112.714L106.865 115.125L101.393 118.284L97.2179 115.873Z" fill="#B3B3B3"/>
<path d="M103.584 112.198L109.056 109.039L113.231 111.449L107.759 114.608L103.584 112.198Z" fill="#B3B3B3"/>
<path d="M109.95 108.522L115.422 105.363L119.597 107.773L114.125 110.933L109.95 108.522Z" fill="#B3B3B3"/>
<path d="M116.316 104.847L121.788 101.688L125.963 104.098L120.491 107.258L116.316 104.847Z" fill="#B3B3B3"/>
<path d="M122.683 101.172L128.154 98.012L132.329 100.423L126.857 103.582L122.683 101.172Z" fill="#B3B3B3"/>
<path d="M129.049 97.496L134.52 94.337L138.695 96.747L133.223 99.906L129.049 97.496Z" fill="#B3B3B3"/>
<path d="M135.414 93.82L140.887 90.662L145.061 93.072L139.589 96.231L135.414 93.82Z" fill="#B3B3B3"/>
<path d="M141.78 90.145L147.252 86.986L151.427 89.396L145.955 92.556L141.78 90.145Z" fill="#B3B3B3"/>
<path d="M148.147 86.47L153.619 83.311L157.793 85.721L152.321 88.88L148.147 86.47Z" fill="#B3B3B3"/>
<path d="M95.6379 122.312L101.11 119.153L105.285 121.563L99.8129 124.722L95.6379 122.312Z" fill="#B3B3B3"/>
<path d="M102.004 118.636L107.476 115.477L111.651 117.888L106.179 121.047L102.004 118.636Z" fill="#B3B3B3"/>
<path d="M108.37 114.961L113.842 111.802L118.017 114.212L112.545 117.371L108.37 114.961Z" fill="#B3B3B3"/>
<path d="M114.736 111.286L120.209 108.127L124.383 110.537L118.911 113.696L114.736 111.286Z" fill="#B3B3B3"/>
<path d="M121.102 107.61L126.574 104.451L130.749 106.861L125.278 110.021L121.102 107.61Z" fill="#B3B3B3"/>
<path d="M127.468 103.935L132.941 100.776L137.115 103.186L131.644 106.345L127.468 103.935Z" fill="#B3B3B3"/>
<path d="M133.835 100.26L139.307 97.1L143.481 99.511L138.009 102.67L133.835 100.26Z" fill="#B3B3B3"/>
<path d="M140.201 96.584L145.672 93.425L149.847 95.835L144.376 98.994L140.201 96.584Z" fill="#B3B3B3"/>
<path d="M146.567 92.909L152.039 89.749L156.213 92.159L150.741 95.319L146.567 92.909Z" fill="#B3B3B3"/>
<path d="M154.512 82.795L159.299 85.558L152.933 89.233L157.107 91.644L163.474 87.968L165.071 87.046L168.946 84.809L165.392 82.757L164.771 82.398L159.984 79.635L154.512 82.795Z" fill="#E6E6E6"/>
<path d="M108.457 120.438L106.791 121.4L100.425 125.076L104.6 127.486L110.966 123.81L112.633 122.848L116.438 120.651L112.262 118.241L108.457 120.438Z" fill="#E6E6E6"/>
<path d="M113.157 117.725L118.629 114.565L122.804 116.975L117.331 120.135L113.157 117.725Z" fill="#B3B3B3"/>
<path d="M119.523 114.049L124.995 110.89L129.169 113.3L123.697 116.459L119.523 114.049Z" fill="#B3B3B3"/>
<path d="M125.889 110.374L131.361 107.214L135.536 109.625L130.064 112.784L125.889 110.374Z" fill="#B3B3B3"/>
<path d="M132.255 106.698L137.727 103.539L141.901 105.949L136.43 109.108L132.255 106.698Z" fill="#B3B3B3"/>
<path d="M138.621 103.023L144.093 99.864L148.267 102.274L142.796 105.433L138.621 103.023Z" fill="#B3B3B3"/>
<path d="M144.987 99.347L150.459 96.188L154.634 98.598L149.162 101.758L144.987 99.347Z" fill="#B3B3B3"/>
<path d="M151.353 95.672L156.825 92.513L161 94.923L155.528 98.082L151.353 95.672Z" fill="#B3B3B3"/>
<path d="M163.191 88.837L162.255 89.378L157.719 91.997L161.894 94.407L166.43 91.788L167.366 91.248L173.732 87.572L169.557 85.162L163.191 88.837Z" fill="#E6E6E6"/>
<path d="M105.211 127.839L110.683 124.679L114.858 127.09L109.386 130.249L105.211 127.839Z" fill="#E6E6E6"/>
<path d="M111.577 124.164L117.049 121.004L121.224 123.414L115.752 126.573L111.577 124.164Z" fill="#B3B3B3"/>
<path d="M117.943 120.488L123.415 117.329L127.59 119.739L122.118 122.898L117.943 120.488Z" fill="#B3B3B3"/>
<path d="M152.509 100.531L149.773 102.111L148.879 102.627L143.407 105.786L142.513 106.302L137.041 109.462L136.147 109.978L130.675 113.137L124.309 116.812L128.484 119.223L134.85 115.547L140.322 112.388L141.216 111.872L146.688 108.713L147.582 108.196L153.054 105.038L153.948 104.521L156.684 102.942L159.42 101.362L155.245 98.951L152.509 100.531Z" fill="#E6E6E6"/>
<path d="M156.139 98.435L161.611 95.276L165.786 97.686L160.314 100.846L156.139 98.435Z" fill="#B3B3B3"/>
<path d="M162.506 94.76L167.977 91.6L172.152 94.011L166.68 97.17L162.506 94.76Z" fill="#B3B3B3"/>
<path d="M168.871 91.084L174.343 87.925L178.518 90.336L173.046 93.495L168.871 91.084Z" fill="#E6E6E6"/>
<path d="M150.342 63.738L63.7009 116.002L61.2259 115.189L44.1689 51.451L133.284 0L135.759 0.813L150.342 63.738Z" fill="black"/>
<path d="M152.817 64.551L63.7009 116.002L46.6439 52.264L135.759 0.812988L152.817 64.551Z" fill="#333333"/>
<path d="M149.697 63.257L65.3889 111.932L65.1279 110.963L49.7679 53.558L133.107 5.44799L134.076 4.883L149.697 63.257Z" fill="white"/>
<path d="M148.467 62.852L65.1279 110.963L49.7679 53.558L133.107 5.448L148.467 62.852Z" fill="#0E92CF"/>
<path d="M171.674 113.258L150.632 125.407L137.426 117.782L158.467 105.634L171.674 113.258Z" fill="#333333"/>
<mask id="mask0_28_1843" style="mask-type:luminance" maskUnits="userSpaceOnUse" x="49" y="5" width="100" height="106">
<path d="M148.467 62.852L65.1279 110.963L49.7679 53.558L133.107 5.448L148.467 62.852Z" fill="white"/>
</mask>
<g mask="url(#mask0_28_1843)">
<path d="M131.593 44.048L130.889 43.983C131.577 45.358 131.401 47.509 131.188 49.089L131.867 49.403C132.099 47.677 132.234 45.624 131.593 44.048Z" fill="#999999"/>
</g>
<mask id="mask1_28_1843" style="mask-type:luminance" maskUnits="userSpaceOnUse" x="49" y="5" width="100" height="106">
<path d="M148.467 62.852L65.1279 110.963L49.7679 53.558L133.107 5.448L148.467 62.852Z" fill="white"/>
</mask>
<g mask="url(#mask1_28_1843)">
<path d="M128.027 64.074L127.809 63.59C127.817 63.587 128.716 63.154 129.274 61.664C129.803 60.253 128.833 56.462 128.823 56.424L129.336 56.291C129.378 56.453 130.358 60.284 129.771 61.851C129.13 63.562 128.072 64.054 128.027 64.074Z" fill="#333333"/>
</g>
<mask id="mask2_28_1843" style="mask-type:luminance" maskUnits="userSpaceOnUse" x="49" y="5" width="100" height="106">
<path d="M148.467 62.852L65.1279 110.963L49.7679 53.558L133.107 5.448L148.467 62.852Z" fill="white"/>
</mask>
<g mask="url(#mask2_28_1843)">
<path d="M112.574 129.845C109.271 131.818 104.77 133.605 102.754 132.69C102.231 132.472 101.882 132.058 101.751 131.437C101.544 130.521 101.359 129.606 101.173 128.69C99.407 119.948 98.5679 111.6 100.17 104.253L96.104 90.389L95.995 90.019L95.09 86.913L94.9809 86.543C94.9049 78.096 98.4139 75.033 104.518 75.861C104.867 75.916 105.216 75.97 105.586 76.047C105.848 76.09 106.131 76.156 106.404 76.221C106.796 76.319 107.189 76.428 107.603 76.548L108.399 81.431L111.821 102.434C112.825 110.564 111.179 122.761 112.574 129.845Z" fill="#25435C"/>
<path opacity="0.5" d="M102.754 132.69C102.231 132.472 101.882 132.058 101.751 131.437C101.544 130.521 101.359 129.606 101.173 128.69C99.407 119.948 98.568 111.6 100.17 104.253L96.104 90.389L95.995 90.019C95.777 91.261 95.385 93.267 95.221 94.172C95.047 95.12 94.872 96.079 94.687 97.05L94.197 88.047L95.091 86.914L100.737 79.786C100.628 81.061 100.563 82.336 100.53 83.633C100.399 90.282 101.282 97.214 102.754 104.342C100.628 111.403 101.718 122.074 102.754 132.69Z" fill="#162B35"/>
<path d="M104.732 73.936C104.717 74.834 104.582 75.851 104.246 76.929C103.52 79.443 99.413 76.405 97.894 78.366C96.061 80.73 96.787 87.95 96.098 89.409C96.076 89.566 96.031 89.768 95.993 90.015C95.776 91.257 95.387 93.27 95.222 94.167C95.043 95.125 94.87 96.082 94.683 97.055C94.047 100.437 93.314 103.924 92.521 107.515C91.855 110.478 91.1369 113.486 90.4109 116.568C88.1659 125.973 87.209 134.884 86.992 143.488C84.127 144.812 80.7599 144.558 78.7769 143.114C78.0589 142.598 77.52 141.924 77.236 141.116C77.273 137.285 77.288 133.38 77.386 129.736C77.558 122.164 78.0969 115.64 79.7729 112.73L79.795 82.66C78.201 77.004 77.88 66.873 81.149 64.464C81.194 64.419 81.246 64.382 81.291 64.352L94.197 67.203C98.581 66.694 101.597 72.253 103.407 72.044L104.732 73.936Z" fill="#25435C"/>
<path opacity="0.5" d="M85.354 107.417C81.142 113.649 78.9349 130.611 78.7769 143.113C78.0589 142.597 77.52 141.923 77.236 141.115C77.273 137.284 77.288 133.379 77.386 129.735C77.558 122.163 78.0969 115.639 79.7729 112.729L79.795 82.659C78.201 77.003 77.88 66.872 81.149 64.463L86.551 78.282C86.446 90.306 83.034 97.608 85.354 107.417Z" fill="#162B35"/>
</g>
<mask id="mask3_28_1843" style="mask-type:luminance" maskUnits="userSpaceOnUse" x="49" y="5" width="100" height="106">
<path d="M148.467 62.852L65.1279 110.963L49.7679 53.558L133.107 5.448L148.467 62.852Z" fill="white"/>
</mask>
<g mask="url(#mask3_28_1843)">
<path d="M126.499 54.923L121.88 69.851L115.493 85.848C115.493 85.848 109.476 83.724 109.74 82.915C110.004 82.106 112.574 68.877 112.574 68.877L115.015 59.04L126.499 54.923Z" fill="#94CDF2"/>
</g>
<mask id="mask4_28_1843" style="mask-type:luminance" maskUnits="userSpaceOnUse" x="49" y="5" width="100" height="106">
<path d="M148.467 62.852L65.1279 110.963L49.7679 53.558L133.107 5.448L148.467 62.852Z" fill="white"/>
</mask>
<g mask="url(#mask4_28_1843)">
<path d="M125.442 59.047C123.325 63.671 120.938 67.786 117.265 69.484L109.431 72.477L109.992 76.143C109.64 76.427 109.281 76.704 108.922 76.959C106.625 78.642 104.246 79.869 101.859 80.618C96.4049 82.354 90.9509 81.628 86.5509 78.284C84.5379 76.75 82.7579 74.678 81.2909 72.044C80.2209 69.111 79.5329 66.171 80.4759 63.642C81.1419 61.861 82.6159 60.283 85.3539 59.041L96.5919 52.599L111.01 44.055C125.135 41.165 125.569 49.859 125.442 59.047Z" fill="white"/>
</g>
<mask id="mask5_28_1843" style="mask-type:luminance" maskUnits="userSpaceOnUse" x="49" y="5" width="100" height="106">
<path d="M148.467 62.852L65.1279 110.963L49.7679 53.558L133.107 5.448L148.467 62.852Z" fill="white"/>
</mask>
<g mask="url(#mask5_28_1843)">
<path d="M104.329 88.902L106.506 86.857L108.287 84.312L111.058 81.248L111.22 80.995C112.871 82.251 114.617 83.622 115.533 85.292L115.215 89.496L113.994 93.42L113.169 95.402C112.74 96.689 111.899 96.639 112.047 95.402L112.311 94.016L110.935 97C110.349 98.322 109.54 98.058 109.729 97L110.86 92.631L108.686 96.533C107.825 97.895 106.762 97.398 107.487 95.897L108.715 93.093L109.507 90.751L108.946 87.815L107.626 88.376L105.465 89.91C104.015 91.047 103.142 90.008 104.329 88.902Z" fill="#FFB294"/>
</g>
<mask id="mask6_28_1843" style="mask-type:luminance" maskUnits="userSpaceOnUse" x="49" y="5" width="100" height="106">
<path d="M148.467 62.852L65.1279 110.963L49.7679 53.558L133.107 5.448L148.467 62.852Z" fill="white"/>
</mask>
<g mask="url(#mask6_28_1843)">
<path d="M117.393 49.468C117.393 49.468 113.062 49.537 112.25 54.273C111.438 59.009 114.061 64.627 117.492 66.59L119.218 61.65L121.601 63.748L124.296 55.588L117.393 49.468Z" fill="#BFE6FF"/>
</g>
<mask id="mask7_28_1843" style="mask-type:luminance" maskUnits="userSpaceOnUse" x="49" y="5" width="100" height="106">
<path d="M148.467 62.852L65.1279 110.963L49.7679 53.558L133.107 5.448L148.467 62.852Z" fill="white"/>
</mask>
<g mask="url(#mask7_28_1843)">
<path d="M123.244 60.156L118.724 61.718C115.202 62.197 114.601 58.906 114.37 55.488C114.251 53.735 115.088 52.054 116.557 51.089L118.724 49.665L123.244 60.156Z" fill="#FFB294"/>
</g>
<mask id="mask8_28_1843" style="mask-type:luminance" maskUnits="userSpaceOnUse" x="49" y="5" width="100" height="106">
<path d="M148.467 62.852L65.1279 110.963L49.7679 53.558L133.107 5.448L148.467 62.852Z" fill="white"/>
</mask>
<g mask="url(#mask8_28_1843)">
<path opacity="0.5" d="M118.724 64.523C116.451 65.244 116.145 62.956 118.119 54.622L122.737 56.573C122.031 58.594 120.646 63.235 118.724 64.523Z" fill="#FFB294"/>
<path d="M132.573 51.894C132.347 53.264 131.854 53.953 131.205 55.715C131.062 56.09 130.774 56.641 130.589 57.118C130.571 57.172 130.547 57.219 130.529 57.273C130.038 58.344 126.891 65.485 123.243 63.831C122.225 63.372 119.67 62.13 118.604 59.801C117.538 57.473 118.08 53.263 118.08 53.263L116.627 51.947C116.627 51.947 116.395 47.189 117.621 45.051C119.169 42.36 122.021 41.535 125.445 42.363C132.538 44.083 132.99 49.386 132.573 51.894Z" fill="#FFB294"/>
<path d="M116.369 52.39L120.297 55.638L121.289 53.82C121.634 52.901 122.692 52.47 123.577 52.896C125.065 53.612 126.054 54.168 128.743 53.946C131.3 53.734 132.236 52.443 132.236 52.443C134.945 48.717 130.733 43.366 126.556 41.887C121.484 40.091 118.14 42.656 116.968 45.619C115.903 48.311 116.369 52.39 116.369 52.39Z" fill="black"/>
<path d="M119.738 51.79C119.483 51.324 118.924 50.978 118.419 51.146C118.136 51.24 117.919 51.478 117.788 51.745C117.657 52.012 117.603 52.311 117.558 52.605C117.322 54.179 117.565 56.483 118.622 56.02C119.017 55.847 119.563 55.016 119.734 54.621C120.097 53.779 120.191 52.618 119.738 51.79Z" fill="#FFB294"/>
</g>
<mask id="mask9_28_1843" style="mask-type:luminance" maskUnits="userSpaceOnUse" x="49" y="5" width="100" height="106">
<path d="M148.467 62.852L65.1279 110.963L49.7679 53.558L133.107 5.448L148.467 62.852Z" fill="white"/>
</mask>
<g mask="url(#mask9_28_1843)">
<path opacity="0.2" d="M118.314 80.967L112.064 89.565L106.976 88.839L101.858 80.616L99.1169 83.575L93.4359 84.221L88.2269 83.064C90.0379 81.268 85.8629 84.216 88.2269 83.064C86.2139 81.53 82.7569 74.676 81.2909 72.042C80.2209 69.109 79.5329 66.169 80.4759 63.64C86.0279 69.072 91.8259 71.563 100.011 64.65L110.411 66.776L118.223 79.01L118.314 80.967Z" fill="#227FBC"/>
</g>
<mask id="mask10_28_1843" style="mask-type:luminance" maskUnits="userSpaceOnUse" x="49" y="5" width="100" height="106">
<path d="M148.467 62.852L65.1279 110.963L49.7679 53.558L133.107 5.448L148.467 62.852Z" fill="white"/>
</mask>
<g mask="url(#mask10_28_1843)">
<path d="M128.421 63.809C128.499 63.602 128.523 63.392 128.323 63.167C127.596 62.828 125.552 63.433 124.915 63.98C124.681 64.72 124.918 64.984 125.257 65.167C126.466 65.392 128.201 64.558 128.421 63.809Z" fill="black"/>
</g>
<mask id="mask11_28_1843" style="mask-type:luminance" maskUnits="userSpaceOnUse" x="49" y="5" width="100" height="106">
<path d="M148.467 62.852L65.1279 110.963L49.7679 53.558L133.107 5.448L148.467 62.852Z" fill="white"/>
</mask>
<g mask="url(#mask11_28_1843)">
<path d="M130.973 42.967C129.996 41.801 128.439 41.402 126.211 41.75C121.986 42.41 119.368 45.625 118.64 51.048L119.319 51.362C120.019 46.146 122.423 43.182 126.464 42.55C128.416 42.245 129.789 42.549 130.547 43.453C130.68 43.612 130.792 43.79 130.888 43.982L131.592 44.047C131.434 43.656 131.24 43.286 130.973 42.967Z" fill="#999999"/>
</g>
<path opacity="0.3" d="M84.2799 99.906L86.0659 100.172L86.7609 102.688L92.8049 104.874L113.691 100.529L126.857 104.205L130.194 106.132L133.718 106.345L136.343 104.494L131.06 98.657L130.468 99.133C133.015 97.692 133.435 94.196 131.304 92.192L128.832 89.869L124.659 80.92L124.203 78.087L123.261 77.515L84.2799 99.906Z" fill="#452323"/>
<path d="M123.783 88.324L126.203 90.836L130.166 94.12L133.545 98.97L135.295 101.688L136.157 103.421C136.878 104.819 135.785 105.4 134.838 103.827L133.565 101.958L131.904 99.796L131.632 99.965L133.799 105.201C134.328 106.483 133.167 107.075 132.382 105.518L130.603 101.883L129.909 100.414L130.672 104.947C130.89 106.571 129.702 106.473 129.336 105.011L127.835 100.677L127.151 100.056L127.315 102.82C127.594 105.064 126.283 104.676 126.066 102.755L125.529 100.01L124.436 98.008L123.177 95.795L123.019 93.81L120.707 91.711L123.783 88.324Z" fill="#FFB294"/>
<path d="M128.108 92.513C126.424 92.197 123.177 92.513 123.402 96.189C117.036 94.386 113.692 90.417 109.483 86.011C104.537 78.492 99.923 71.202 98.355 65.997C95.056 53.285 107.9 55.748 109.791 61.994C111.215 67.547 113.011 71.874 115.685 80.072L128.108 92.513Z" fill="white"/>
<path d="M117.492 51.47L118.161 51.086C118.456 50.917 118.861 50.941 119.309 51.198C120.212 51.716 120.944 52.984 120.944 54.029C120.944 54.555 120.759 54.924 120.46 55.095L119.791 55.478C120.09 55.307 120.275 54.938 120.275 54.412C120.275 53.366 119.543 52.098 118.64 51.581C118.192 51.325 117.786 51.301 117.492 51.47Z" fill="#4D4D4D"/>
<path d="M117.007 52.539C117.007 51.493 117.737 51.064 118.64 51.582C119.543 52.1 120.275 53.368 120.275 54.413C120.275 55.459 119.543 55.884 118.64 55.367C117.737 54.849 117.007 53.584 117.007 52.539Z" fill="white"/>
<path d="M117.172 53.047C117.188 52.328 117.711 52.021 118.34 52.363C118.969 52.705 119.466 53.566 119.45 54.285C119.434 55.004 118.91 55.309 118.28 54.967C117.651 54.625 117.155 53.766 117.172 53.047Z" fill="black"/>
<path d="M82.7989 53.474L82.4639 52.179L83.3369 50.257C85.0669 46.423 85.8319 44.425 85.4629 42.931C85.2039 41.93 84.4979 41.327 83.1839 42.095C82.3039 42.609 81.6749 43.553 81.2759 44.283L80.3319 43.106C80.8879 42.025 81.8569 40.883 83.1229 40.143C85.3479 38.843 86.8359 39.783 87.3089 41.614C87.8179 43.583 86.9619 45.911 85.6839 48.746L85.0229 50.107C85.0319 50.141 89.1569 47.73 89.1569 47.73L89.6119 49.492L82.7989 53.474Z" fill="white"/>
<path d="M95.2719 46.186L94.5359 43.337L89.9929 45.992L89.6359 44.61L91.9229 35.222L94.1639 33.913L95.9139 40.683L97.2109 39.925L97.6259 41.532L96.3289 42.29L97.0649 45.139L95.2719 46.186ZM94.1199 41.729L93.3299 38.673C93.1649 38.033 93.0099 37.369 92.8869 36.685C92.6979 37.609 92.5829 38.334 92.4349 39.136L91.3909 43.285C91.3839 43.328 94.1199 41.729 94.1199 41.729Z" fill="white"/>
<path d="M99.0059 44.799L99.5399 30.074L100.869 29.298L100.335 44.023L99.0059 44.799Z" fill="white"/>
<path d="M108.582 25.485L108.934 26.849L107.233 39.195L105.225 40.369L107.021 28.464C107.012 28.43 102.284 31.193 102.284 31.193L101.829 29.431L108.582 25.485Z" fill="white"/>
<path d="M175.735 138.774H177.747C179.684 138.694 181.081 138.159 181.564 136.854C181.938 134.843 181.922 132.784 181.564 130.682C180.16 124.825 179.481 117.521 179.164 109.492L184.513 93.651L194.113 97.491L185.678 115.046C188.363 120.888 186.323 128.727 185.815 137.196L186.615 139.368L186.323 141.79L175.734 142.614L174.294 140.077L175.735 138.774Z" fill="#FFB294"/>
<path d="M174.409 138.774C172.268 138.833 172.306 140.283 172.626 141.334C173.181 142.75 174.954 143.909 176.512 143.94C178.292 143.975 182.684 144.397 182.684 144.397C184.281 145.036 185.453 144.835 186.877 144.429C187.464 142.604 187.595 140.937 186.616 139.368C185.61 142.065 181.21 142.304 177.198 141.766C176.279 141.642 175.41 140.609 175.962 139.864C176.334 139.362 176.903 138.982 177.747 138.774H174.409Z" fill="#C1272D"/>
<path d="M195.933 136.318C195.006 135.988 194.173 136.076 193.518 136.946L192.787 138.089L195.933 140.786H199.141L200.558 139.414L199.872 135.94C200.786 126.111 204.718 119.116 200.558 111.527V101.012L194.432 102.703L195.164 112.669C195.896 120.122 196.993 134.111 195.933 136.318Z" fill="#FFB294"/>
<path d="M200.432 138.774C199.987 139.757 198.125 140.397 196.261 140.054C194.567 139.303 193.755 138.676 193.335 137.562C193.842 136.891 194.849 136.435 195.897 136.344L196.151 135.746L194.797 134.979C193.413 134.365 192.478 134.783 191.826 135.848C191.334 137.83 191.941 139.15 193.312 140.008L195.369 141.585C196.164 143.532 197.05 144.534 198.638 144.305C200.373 144.055 200.992 143.36 201.098 141.887C201.012 140.768 200.937 139.547 200.432 138.774Z" fill="#C1272D"/>
<path d="M202.432 110.247C201.508 112.184 194 113.742 187.666 113.846C183.036 113.928 179.031 113.232 178.683 111.344C180.222 97.053 184.772 95.456 185.233 87.754C185.266 87.214 185.28 86.646 185.269 86.04L197.335 81.465L201.861 84.6C205.244 91.452 203.461 99.777 202.432 110.247Z" fill="#E3363D"/>
<path d="M187.667 113.846C183.037 113.928 179.032 113.232 178.684 111.344C180.223 97.053 184.773 95.456 185.234 87.754L192.319 90.289C182.309 94.291 182.724 106.952 187.667 113.846Z" fill="#E3363D"/>
<path d="M180.925 49.177C180.537 49.842 180.38 50.617 180.301 51.383C180.048 53.852 180.569 56.396 181.773 58.567C182.066 59.095 182.405 59.609 182.865 60.001C183.325 60.393 183.922 60.653 184.524 60.607C185.409 60.54 186.108 59.859 186.713 59.21C187.247 58.637 187.79 58.023 187.979 57.264C188.184 56.44 187.94 55.574 187.645 54.778C186.971 52.961 186.013 51.25 184.822 49.721C184.364 49.133 183.7 48.044 182.916 47.88C182.115 47.712 181.286 48.559 180.925 49.177Z" fill="#FFB294"/>
<path d="M185.25 65.487L183.99 65.63C182.881 65.777 181.723 65.233 180.774 64.604L179.39 64.105L178.051 64.299C177.69 64.313 177.577 63.928 177.937 63.809L179.364 63.313L177.917 62.711L177.018 62.73C176.789 62.735 176.577 62.609 176.471 62.405L176.41 62.287L176.154 62.347C175.976 62.389 175.798 62.278 175.756 62.099C175.715 61.921 175.825 61.743 176.004 61.701L176.215 61.652C176.188 61.394 176.355 61.171 176.597 61.126L178.319 60.81L181.243 61.421L183.799 62.575L184.85 63.765L186.565 63.774L186.227 66.153L185.25 65.487Z" fill="#FFB294"/>
<path d="M198.182 58.268C200.8 58.966 202.355 64.121 202.475 69.216C202.508 70.622 201.254 71.709 199.87 71.462L198.183 71.16L183.853 66.152L184.85 63.764L196.126 66.017L196.057 59.434L198.182 58.268Z" fill="#FFB294"/>
<path d="M190.244 91.212C188.242 91.302 186.39 90.998 185.06 90.153C185.189 85.778 184.577 81.529 182.685 78.361C181.675 77.64 180.874 77.05 180.29 76.309C179.763 75.64 179.418 74.847 179.251 73.722C178.881 71.198 182.822 67.046 182.822 67.046C182.822 67.046 187.477 61.132 190.434 59.64C193.391 58.148 198.183 58.268 198.183 58.268C201.933 63.137 198.183 75.48 199.143 78.292C200.216 81.433 202.402 84.395 202.402 84.395C202.73 87.585 195.892 90.962 190.244 91.212Z" fill="#0E92CF"/>
<path d="M184.147 59.547L185.718 63.987C187.977 65.42 193.496 63.02 192.197 60.659L190.061 56.805L184.147 59.547Z" fill="#FFB294"/>
<path d="M180.29 48.793C180.29 48.793 176.497 53.223 183.705 57.968C186.565 59.85 186.565 63.481 186.094 64.883C189.197 64.23 193.164 64.419 194.113 59.249C194.913 55.294 194.104 48.375 189.298 46.515C184.491 44.654 179.493 46.244 180.29 48.793Z" fill="black"/>
<path opacity="0.5" d="M189.388 77.418L190.354 87.754L190.245 91.211C188.243 91.301 186.391 90.997 185.061 90.152C185.19 85.777 184.578 81.528 182.686 78.36C181.676 77.639 180.875 77.049 180.291 76.308C185.264 79.147 181.967 71.639 184.834 69.766L189.388 77.418Z" fill="#227FBC"/>
<path d="M182.411 72.647L184.197 81.373L179.995 95.238L182.383 96.094C184.64 91.218 188.073 87.044 189.368 82.499C189.481 78.747 189.036 74.671 188.123 70.324C187.221 66.139 181.37 67.289 182.411 72.647Z" fill="#FFB294"/>
<path d="M181.14 92.962L179.996 95.239L178.586 100.088C178.581 101.263 178.764 102.467 179.091 103.693L179.437 104.72C179.507 104.927 179.667 105.09 179.873 105.163L179.972 105.198L180.138 105.602C180.188 105.723 180.297 105.81 180.427 105.831C180.648 105.867 180.852 105.704 180.866 105.481L180.878 105.28L181.003 105.232C181.307 105.114 181.502 104.814 181.485 104.488L181.363 102.067C182.064 100.881 182.718 99.719 182.823 98.838C182.89 97.852 182.722 96.893 182.457 95.944L183.335 93.194L181.14 92.962Z" fill="#FFB294"/>
<path opacity="0.3" d="M43.292 132.425L34.678 137.398C33.768 137.924 32.291 137.924 31.381 137.398L28.621 135.804C27.711 135.278 27.711 134.426 28.621 133.9L37.235 128.927C38.145 128.401 39.622 128.401 40.532 128.927L43.292 130.521C44.202 131.047 44.202 131.899 43.292 132.425Z" fill="#4694B8"/>
<path d="M59.321 141.709C59.312 141.706 62.622 136.087 62.622 136.087L66.735 137.207L69.681 135.506C70.68 134.93 72.299 134.93 73.297 135.506L84.642 140.56L88.359 138.983L91.677 146.407C91.887 146.894 91.675 147.437 91.009 147.821L81.252 153.454C80.253 154.03 78.634 154.03 77.636 153.454L59.923 143.227C59.213 142.815 59.018 142.224 59.321 141.709Z" fill="#333333"/>
<path d="M63.147 137.387L76.35 145.01C77.204 145.503 78.589 145.503 79.443 145.01L87.789 140.191C88.643 139.698 88.643 138.898 87.789 138.405L74.586 130.782C73.732 130.289 72.347 130.289 71.493 130.782L63.147 135.601C62.292 136.095 62.292 136.894 63.147 137.387Z" fill="#F2F2F2"/>
<path d="M44.17 151.855C44.161 151.853 47.471 146.234 47.471 146.234L51.584 147.354L54.531 145.653C55.53 145.076 57.149 145.076 58.147 145.653L69.579 152.253L86.687 156.911L90.005 164.335C90.215 164.822 90.003 165.365 89.337 165.749L79.58 171.382C78.581 171.959 76.962 171.959 75.964 171.382L44.773 153.374C44.062 152.962 43.867 152.37 44.17 151.855Z" fill="#333333"/>
<path d="M47.995 147.534L74.676 162.938C75.53 163.431 76.915 163.431 77.769 162.938L86.115 158.119C86.969 157.626 86.969 156.826 86.115 156.333L59.434 140.929C58.58 140.436 57.195 140.436 56.341 140.929L47.995 145.748C47.141 146.241 47.141 147.041 47.995 147.534Z" fill="#F2F2F2"/>
<path d="M58.211 148.602C58.327 148.887 58.617 149.234 59.086 149.505C59.782 149.907 60.558 149.929 61.089 149.622C61.582 149.338 61.582 149.013 61.144 148.443C60.589 147.77 60.503 147.206 61.247 146.776C62.068 146.302 63.359 146.342 64.384 146.934C64.924 147.246 65.19 147.544 65.292 147.756L64.549 147.968C64.47 147.814 64.275 147.521 63.797 147.245C63.077 146.829 62.374 146.92 62.014 147.127C61.522 147.412 61.599 147.737 62.046 148.32C62.592 149.033 62.615 149.544 61.841 149.99C61.027 150.46 59.721 150.519 58.479 149.801C57.969 149.507 57.563 149.101 57.468 148.829L58.211 148.602Z" fill="black"/>
<path d="M66.8631 148.142L67.5511 148.539L65.1891 149.903C65.5101 149.862 65.8541 149.863 66.1831 149.916C66.5041 149.966 66.8251 150.061 67.0821 150.21C67.5911 150.504 68.0921 151.154 66.7851 151.908L64.5321 153.209L63.8441 152.811L66.0191 151.556C66.6291 151.204 66.9181 150.775 66.2691 150.4C65.8231 150.143 65.1591 150.12 64.6581 150.265C64.5241 150.296 64.4151 150.351 64.2821 150.427L61.9981 151.746L61.3091 151.348L66.8631 148.142Z" fill="black"/>
<path d="M65.6531 153.857L69.4391 151.67L70.1281 152.068L66.3421 154.254L65.6531 153.857ZM71.2711 151.499C71.0451 151.639 70.6851 151.648 70.4111 151.49C70.1691 151.35 70.1841 151.142 70.4191 151.007C70.6621 150.867 71.0291 150.862 71.2791 151.006C71.5371 151.156 71.5141 151.359 71.2711 151.499Z" fill="black"/>
<path d="M67.556 154.955L70.818 153.072L70.286 152.764L70.81 152.462L71.342 152.77L71.522 152.666C72.054 152.359 72.656 152.146 73.283 152.156C73.791 152.16 74.236 152.3 74.558 152.485C74.8 152.625 74.956 152.779 75.035 152.887L74.408 153.14C74.355 153.054 74.253 152.95 74.057 152.837C73.47 152.498 72.804 152.71 72.225 153.045L72.022 153.163L72.937 153.691L72.412 153.993L71.497 153.465L68.235 155.348L67.556 154.955Z" fill="black"/>
<path d="M75.5601 153.948L74.472 154.576L75.4571 155.145L74.933 155.447L73.9481 154.878L71.906 156.057C71.437 156.328 71.303 156.558 71.687 156.78C71.867 156.884 72.023 156.947 72.132 156.983L71.648 157.299C71.46 157.254 71.21 157.154 70.943 157.001C70.623 156.816 70.4671 156.608 70.4911 156.405C70.4981 156.174 70.764 155.94 71.21 155.682L73.275 154.49L72.6891 154.152L73.213 153.85L73.799 154.188L74.706 153.665L75.5601 153.948Z" fill="black"/>
<path d="M71.38 137.715C71.02 137.646 70.417 137.437 69.801 137.082C68.371 136.257 68.199 135.115 69.861 134.156C71.448 133.24 73.598 133.239 75.171 134.148C75.802 134.512 76.066 134.821 76.148 134.972L75.457 135.189C75.329 134.977 75.066 134.72 74.644 134.477C73.456 133.791 71.908 133.774 70.577 134.542C69.336 135.258 69.254 136.131 70.486 136.843C70.884 137.073 71.374 137.26 71.764 137.338L71.38 137.715Z" fill="black"/>
<path d="M77.4951 136.028L76.4501 136.632L77.3981 137.179L76.8941 137.47L75.9461 136.923L73.9841 138.056C73.5331 138.316 73.4051 138.538 73.7731 138.75C73.9471 138.85 74.0961 138.911 74.2021 138.946L73.7361 139.25C73.5551 139.207 73.3141 139.111 73.0581 138.963C72.7491 138.785 72.6011 138.586 72.6221 138.39C72.6301 138.169 72.8861 137.943 73.3131 137.696L75.2981 136.55L74.7341 136.224L75.2381 135.933L75.8021 136.259L76.6741 135.755L77.4951 136.028Z" fill="black"/>
<path d="M77.008 138.265C77.437 138.017 77.799 137.801 78.113 137.592L78.692 137.927L78.002 138.352C78.686 138.183 79.393 138.235 79.836 138.491C79.912 138.535 79.956 138.569 80.002 138.612L79.377 138.972C79.324 138.924 79.264 138.881 79.174 138.828C78.707 138.56 78.024 138.572 77.438 138.807C77.332 138.851 77.211 138.902 77.099 138.968L75.159 140.088L74.505 139.711L77.008 138.265Z" fill="black"/>
<path d="M82.334 138.066L82.995 138.448L77.656 141.53L76.995 141.148L82.334 138.066Z" fill="black"/>
</svg>
